<svg width="85" height="56" viewBox="0 0 85 56" fill="none" xmlns="http://www.w3.org/2000/svg">
<g clip-path="url(#clip0)">
<path d="M80 22H22L30 40H80V22Z" fill="#015FEE"/>
<path d="M41.008 32.84C41.008 32.4987 40.8747 32.2373 40.608 32.056C40.3413 31.864 40.0107 31.7147 39.616 31.608C39.2213 31.4907 38.7893 31.384 38.32 31.288C37.8613 31.192 37.4347 31.064 37.04 30.904C36.6453 30.744 36.3147 30.5307 36.048 30.264C35.7813 29.9867 35.648 29.6027 35.648 29.112C35.648 28.7067 35.7333 28.36 35.904 28.072C36.0853 27.784 36.32 27.5493 36.608 27.368C36.896 27.176 37.232 27.0373 37.616 26.952C38 26.856 38.4 26.808 38.816 26.808C39.5627 26.808 40.2027 26.904 40.736 27.096C41.28 27.2773 41.712 27.4693 42.032 27.672L41.52 28.68C41.168 28.488 40.784 28.3067 40.368 28.136C39.9627 27.9547 39.4507 27.864 38.832 27.864C38.5973 27.864 38.3627 27.8907 38.128 27.944C37.904 27.9867 37.696 28.056 37.504 28.152C37.3227 28.248 37.1733 28.376 37.056 28.536C36.9493 28.6853 36.896 28.872 36.896 29.096C36.896 29.3733 37.0293 29.5867 37.296 29.736C37.5627 29.8853 37.8933 30.0133 38.288 30.12C38.6827 30.216 39.1093 30.312 39.568 30.408C40.0373 30.4933 40.4693 30.6213 40.864 30.792C41.2587 30.9627 41.5893 31.192 41.856 31.48C42.1227 31.768 42.256 32.1573 42.256 32.648C42.256 33.384 41.9627 33.992 41.376 34.472C40.8 34.952 39.9307 35.192 38.768 35.192C38.416 35.192 38.0693 35.16 37.728 35.096C37.3867 35.032 37.0667 34.9467 36.768 34.84C36.4693 34.7333 36.1973 34.616 35.952 34.488C35.7067 34.3493 35.504 34.2107 35.344 34.072L35.984 33.032C36.112 33.16 36.2827 33.2933 36.496 33.432C36.7093 33.56 36.944 33.6773 37.2 33.784C37.456 33.8907 37.728 33.976 38.016 34.04C38.3147 34.104 38.6133 34.136 38.912 34.136C39.2 34.136 39.4667 34.1147 39.712 34.072C39.968 34.0187 40.192 33.944 40.384 33.848C40.576 33.7413 40.7253 33.608 40.832 33.448C40.9493 33.2773 41.008 33.0747 41.008 32.84ZM43.6578 23.8H46.1538V27.992H46.2338C46.5644 27.6187 46.9484 27.3307 47.3858 27.128C47.8231 26.9147 48.3671 26.808 49.0178 26.808C49.5298 26.808 49.9724 26.8613 50.3458 26.968C50.7298 27.0747 51.0391 27.2613 51.2738 27.528C51.5191 27.7947 51.7004 28.1627 51.8177 28.632C51.9351 29.0907 51.9938 29.6773 51.9938 30.392V35H50.7458V30.632C50.7458 30.1733 50.7191 29.7733 50.6658 29.432C50.6124 29.0907 50.5058 28.808 50.3458 28.584C50.1964 28.3493 49.9884 28.1733 49.7218 28.056C49.4551 27.9387 49.1138 27.88 48.6978 27.88C48.4098 27.88 48.1271 27.9333 47.8498 28.04C47.5724 28.136 47.3164 28.2747 47.0818 28.456C46.8578 28.6267 46.6604 28.84 46.4898 29.096C46.3298 29.3413 46.2178 29.6133 46.1538 29.912V35H44.9218V24.872H43.6578V23.8ZM54.0995 31C54.0995 29.7093 54.4355 28.6907 55.1075 27.944C55.7795 27.1867 56.7395 26.808 57.9875 26.808C58.6595 26.808 59.2355 26.92 59.7155 27.144C60.2062 27.3573 60.6115 27.6507 60.9315 28.024C61.2515 28.3973 61.4862 28.84 61.6355 29.352C61.7955 29.864 61.8755 30.4133 61.8755 31C61.8755 31.64 61.7902 32.2213 61.6195 32.744C61.4488 33.256 61.1982 33.6933 60.8675 34.056C60.5368 34.4187 60.1262 34.7013 59.6355 34.904C59.1555 35.096 58.6062 35.192 57.9875 35.192C57.3262 35.192 56.7502 35.0853 56.2595 34.872C55.7688 34.648 55.3635 34.3493 55.0435 33.976C54.7235 33.6027 54.4835 33.16 54.3235 32.648C54.1742 32.136 54.0995 31.5867 54.0995 31ZM55.4275 31C55.4275 31.3733 55.4702 31.7467 55.5555 32.12C55.6515 32.4933 55.8008 32.8293 56.0035 33.128C56.2062 33.4267 56.4675 33.6667 56.7875 33.848C57.1182 34.0293 57.5182 34.12 57.9875 34.12C58.8408 34.12 59.4808 33.8587 59.9075 33.336C60.3448 32.8027 60.5635 32.024 60.5635 31C60.5635 30.616 60.5155 30.2427 60.4195 29.88C60.3342 29.5067 60.1848 29.1707 59.9715 28.872C59.7688 28.5733 59.5022 28.3333 59.1715 28.152C58.8515 27.9707 58.4568 27.88 57.9875 27.88C57.1342 27.88 56.4942 28.1413 56.0675 28.664C55.6408 29.1867 55.4275 29.9653 55.4275 31ZM64.3173 29.8C64.3173 29.704 64.3119 29.5813 64.3013 29.432C64.3013 29.272 64.2959 29.112 64.2853 28.952C64.2746 28.7813 64.2586 28.616 64.2373 28.456C64.2266 28.296 64.2106 28.1573 64.1893 28.04H63.1173V27H65.2453L65.4053 28.12H65.4853C65.7733 27.7467 66.1359 27.4373 66.5733 27.192C67.0213 26.936 67.5653 26.808 68.2053 26.808C69.3466 26.808 70.2053 27.1227 70.7812 27.752C71.3573 28.3813 71.6453 29.4107 71.6453 30.84C71.6453 31.512 71.5439 32.12 71.3413 32.664C71.1493 33.1973 70.8719 33.6507 70.5093 34.024C70.1466 34.3973 69.7093 34.6853 69.1973 34.888C68.6853 35.0907 68.1199 35.192 67.5013 35.192C67.2773 35.192 67.0746 35.1813 66.8932 35.16C66.7226 35.1493 66.5626 35.128 66.4133 35.096C66.2746 35.0747 66.1359 35.0427 65.9973 35C65.8586 34.9573 65.7093 34.904 65.5493 34.84V38.2H64.3173V29.8ZM67.9973 27.976C67.6773 27.976 67.3733 28.0347 67.0853 28.152C66.8079 28.2693 66.5573 28.424 66.3333 28.616C66.1199 28.808 65.9439 29.0213 65.8053 29.256C65.6666 29.4907 65.5813 29.7253 65.5493 29.96V33.608C65.7839 33.768 66.0453 33.896 66.3333 33.992C66.6319 34.0773 67.0213 34.12 67.5013 34.12C68.3546 34.12 69.0373 33.8427 69.5493 33.288C70.0613 32.7227 70.3173 31.9013 70.3173 30.824C70.3173 29.9173 70.1359 29.2187 69.7733 28.728C69.4213 28.2267 68.8293 27.976 67.9973 27.976Z" fill="black"/>
<path d="M31.008 13.84C31.008 13.4987 30.8747 13.2373 30.608 13.056C30.3413 12.864 30.0107 12.7147 29.616 12.608C29.2213 12.4907 28.7893 12.384 28.32 12.288C27.8613 12.192 27.4347 12.064 27.04 11.904C26.6453 11.744 26.3147 11.5307 26.048 11.264C25.7813 10.9867 25.648 10.6027 25.648 10.112C25.648 9.70667 25.7333 9.36 25.904 9.072C26.0853 8.784 26.32 8.54933 26.608 8.368C26.896 8.176 27.232 8.03733 27.616 7.952C28 7.856 28.4 7.808 28.816 7.808C29.5627 7.808 30.2027 7.904 30.736 8.096C31.28 8.27733 31.712 8.46933 32.032 8.672L31.52 9.68C31.168 9.488 30.784 9.30667 30.368 9.136C29.9627 8.95467 29.4507 8.864 28.832 8.864C28.5973 8.864 28.3627 8.89067 28.128 8.944C27.904 8.98667 27.696 9.056 27.504 9.152C27.3227 9.248 27.1733 9.376 27.056 9.536C26.9493 9.68533 26.896 9.872 26.896 10.096C26.896 10.3733 27.0293 10.5867 27.296 10.736C27.5627 10.8853 27.8933 11.0133 28.288 11.12C28.6827 11.216 29.1093 11.312 29.568 11.408C30.0373 11.4933 30.4693 11.6213 30.864 11.792C31.2587 11.9627 31.5893 12.192 31.856 12.48C32.1227 12.768 32.256 13.1573 32.256 13.648C32.256 14.384 31.9627 14.992 31.376 15.472C30.8 15.952 29.9307 16.192 28.768 16.192C28.416 16.192 28.0693 16.16 27.728 16.096C27.3867 16.032 27.0667 15.9467 26.768 15.84C26.4693 15.7333 26.1973 15.616 25.952 15.488C25.7067 15.3493 25.504 15.2107 25.344 15.072L25.984 14.032C26.112 14.16 26.2827 14.2933 26.496 14.432C26.7093 14.56 26.944 14.6773 27.2 14.784C27.456 14.8907 27.728 14.976 28.016 15.04C28.3147 15.104 28.6133 15.136 28.912 15.136C29.2 15.136 29.4667 15.1147 29.712 15.072C29.968 15.0187 30.192 14.944 30.384 14.848C30.576 14.7413 30.7253 14.608 30.832 14.448C30.9493 14.2773 31.008 14.0747 31.008 13.84ZM33.6578 4.8H36.1538V8.992H36.2338C36.5644 8.61867 36.9484 8.33067 37.3858 8.128C37.8231 7.91467 38.3671 7.808 39.0178 7.808C39.5298 7.808 39.9724 7.86133 40.3458 7.968C40.7298 8.07467 41.0391 8.26133 41.2738 8.528C41.5191 8.79467 41.7004 9.16267 41.8177 9.632C41.9351 10.0907 41.9938 10.6773 41.9938 11.392V16H40.7458V11.632C40.7458 11.1733 40.7191 10.7733 40.6658 10.432C40.6124 10.0907 40.5058 9.808 40.3458 9.584C40.1964 9.34933 39.9884 9.17333 39.7218 9.056C39.4551 8.93867 39.1138 8.88 38.6978 8.88C38.4098 8.88 38.1271 8.93333 37.8498 9.04C37.5724 9.136 37.3164 9.27467 37.0818 9.456C36.8578 9.62667 36.6604 9.84 36.4898 10.096C36.3298 10.3413 36.2178 10.6133 36.1538 10.912V16H34.9218V5.872H33.6578V4.8ZM44.8675 16V14.928H47.6515V9.072H44.8675V8H48.9315V14.928H51.6515V16H44.8675ZM47.2195 5.728C47.2195 5.44 47.3155 5.19467 47.5075 4.992C47.6995 4.77867 47.9448 4.672 48.2435 4.672C48.5528 4.672 48.8088 4.77867 49.0115 4.992C49.2248 5.19467 49.3315 5.44 49.3315 5.728C49.3315 6.00533 49.2248 6.24 49.0115 6.432C48.8088 6.624 48.5528 6.72 48.2435 6.72C47.9448 6.72 47.6995 6.624 47.5075 6.432C47.3155 6.24 47.2195 6.00533 47.2195 5.728ZM54.1893 16V14.928H56.0933V9.072H54.1893V8H56.0933V7.552C56.0933 6.54933 56.3546 5.824 56.8773 5.376C57.3999 4.928 58.1466 4.704 59.1173 4.704C59.4693 4.704 59.7839 4.72533 60.0613 4.768C60.3386 4.81067 60.6373 4.896 60.9573 5.024L60.6693 6.064C60.3919 5.94667 60.1253 5.872 59.8693 5.84C59.6133 5.79733 59.3786 5.776 59.1653 5.776C58.4613 5.776 57.9813 5.952 57.7253 6.304C57.4693 6.64533 57.3413 7.21067 57.3413 8H60.6533V9.072H57.3413V14.928H60.6533V16H54.1893ZM62.871 8H64.775V6.416L66.023 6.064V8H70.295V9.072H66.023V12.848C66.023 13.6267 66.2097 14.2027 66.583 14.576C66.967 14.9493 67.511 15.136 68.215 15.136C68.695 15.136 69.111 15.0453 69.463 14.864C69.8257 14.6827 70.151 14.4853 70.439 14.272L70.855 15.216C70.4817 15.5147 70.0337 15.7547 69.511 15.936C68.999 16.1173 68.471 16.208 67.927 16.208C67.5003 16.208 67.095 16.144 66.711 16.016C66.3377 15.8987 66.007 15.712 65.719 15.456C65.431 15.2 65.2017 14.8747 65.031 14.48C64.8603 14.0747 64.775 13.5947 64.775 13.04V9.072H62.871V8Z" fill="#015FEE"/>
<path d="M34.1511 39.8399H29.7345L11.4732 2.14491C7.64822 2.1467 3.82499 2.1467 0 2.1467V0.00178742C4.04266 0.00178742 8.08531 0.00178742 12.128 0H12.7827L31.044 37.695H34.1511V39.8399Z" fill="#015FEE"/>
<path d="M39.3575 56.0001C35.4746 56.0001 32.3167 52.7845 32.3167 48.8307C32.3167 44.877 35.4746 41.6614 39.3575 41.6614C43.2404 41.6614 46.3984 44.877 46.3984 48.8307C46.3966 52.7827 43.2387 56.0001 39.3575 56.0001ZM39.3575 43.8063C36.6367 43.8063 34.4231 46.0602 34.4231 48.8307C34.4231 51.6012 36.6367 53.8552 39.3575 53.8552C42.0784 53.8552 44.2919 51.6012 44.2919 48.8307C44.2901 46.0602 42.0784 43.8063 39.3575 43.8063Z" fill="#015FEE"/>
<path d="M69.8644 56.0001C65.9815 56.0001 62.8235 52.7845 62.8235 48.8307C62.8235 44.877 65.9815 41.6614 69.8644 41.6614C73.7473 41.6614 76.9053 44.877 76.9053 48.8307C76.9053 52.7827 73.7473 56.0001 69.8644 56.0001ZM69.8644 43.8063C67.1436 43.8063 64.93 46.0602 64.93 48.8307C64.93 51.6012 67.1436 53.8552 69.8644 53.8552C72.5852 53.8552 74.7988 51.6012 74.7988 48.8307C74.7988 46.0602 72.5852 43.8063 69.8644 43.8063Z" fill="#015FEE"/>
</g>
<defs>
<clipPath id="clip0">
<rect width="85" height="56" fill="white"/>
</clipPath>
</defs>
</svg>
